<svg id="Layer_1" data-name="Layer 1" xmlns="http://www.w3.org/2000/svg" viewBox="0 0 553.11 225.37"><defs><style>.cls-1{fill:#37c5fd;}.cls-2{fill:#fff;}.cls-3{fill:#c3eefe;}.cls-4{fill:#10a7e3;}.cls-5,.cls-6{fill:#00e5ae;}.cls-5{stroke:#37c5fd;}.cls-5,.cls-6,.cls-7{stroke-linecap:round;}.cls-11,.cls-12,.cls-15,.cls-5,.cls-6,.cls-7{stroke-miterlimit:10;}.cls-5,.cls-7{stroke-width:4.44px;}.cls-6{stroke:#10a7e3;stroke-width:7.22px;}.cls-7{fill:#93dbf7;stroke:#c3eefe;}.cls-8{fill:#14bf96;}.cls-9{fill:#ccfbf0;}.cls-10,.cls-15{fill:none;}.cls-11,.cls-12{fill:#e6ecef;}.cls-11,.cls-12,.cls-15{stroke:#14bf96;}.cls-11{stroke-width:1.65px;}.cls-12{stroke-width:0.99px;}.cls-13{fill:#304752;}.cls-14{fill:#568292;}</style></defs><title>onoffArtboard 1</title><path class="cls-1" d="M0,75.91H142.11a0,0,0,0,1,0,0V138a4,4,0,0,1-4,4H4a4,4,0,0,1-4-4V75.91a0,0,0,0,1,0,0Z"/><rect class="cls-2" x="6.11" y="83.13" width="9.44" height="9.44" rx="1.11" ry="1.11"/><rect class="cls-2" x="18.15" y="83.13" width="9.44" height="9.44" rx="1.11" ry="1.11"/><rect class="cls-2" x="30.2" y="83.13" width="9.44" height="9.44" rx="1.11" ry="1.11"/><rect class="cls-2" x="42.25" y="83.13" width="9.44" height="9.44" rx="1.11" ry="1.11"/><rect class="cls-2" x="54.29" y="83.13" width="9.44" height="9.44" rx="1.11" ry="1.11"/><rect class="cls-2" x="66.34" y="83.13" width="9.44" height="9.44" rx="1.11" ry="1.11"/><rect class="cls-2" x="78.39" y="83.13" width="9.44" height="9.44" rx="1.11" ry="1.11"/><rect class="cls-2" x="90.43" y="83.13" width="9.44" height="9.44" rx="1.11" ry="1.11"/><rect class="cls-2" x="102.48" y="83.13" width="9.44" height="9.44" rx="1.11" ry="1.11"/><rect class="cls-2" x="114.52" y="83.13" width="9.44" height="9.44" rx="1.11" ry="1.11"/><rect class="cls-2" x="126.57" y="83.13" width="9.44" height="9.44" rx="1.11" ry="1.11"/><rect class="cls-2" x="18.15" y="95.89" width="9.44" height="9.44" rx="1.11" ry="1.11"/><rect class="cls-2" x="30.2" y="95.89" width="9.44" height="9.44" rx="1.11" ry="1.11"/><rect class="cls-2" x="42.25" y="95.89" width="9.44" height="9.44" rx="1.11" ry="1.11"/><rect class="cls-2" x="54.29" y="95.89" width="9.44" height="9.44" rx="1.11" ry="1.11"/><rect class="cls-2" x="66.34" y="95.89" width="9.44" height="9.44" rx="1.11" ry="1.11"/><rect class="cls-2" x="78.39" y="95.89" width="9.44" height="9.44" rx="1.11" ry="1.11"/><rect class="cls-2" x="90.43" y="95.89" width="9.44" height="9.44" rx="1.11" ry="1.11"/><rect class="cls-2" x="102.48" y="95.89" width="9.44" height="9.44" rx="1.11" ry="1.11"/><rect class="cls-2" x="114.52" y="95.89" width="9.44" height="9.44" rx="1.11" ry="1.11"/><rect class="cls-2" x="6.11" y="108.66" width="9.44" height="9.44" rx="1.11" ry="1.11"/><rect class="cls-2" x="18.15" y="108.66" width="9.44" height="9.44" rx="1.11" ry="1.11"/><rect class="cls-2" x="30.2" y="108.66" width="9.44" height="9.44" rx="1.11" ry="1.11"/><rect class="cls-2" x="42.25" y="108.66" width="9.44" height="9.44" rx="1.11" ry="1.11"/><rect class="cls-2" x="54.29" y="108.66" width="9.44" height="9.44" rx="1.11" ry="1.11"/><rect class="cls-2" x="66.34" y="108.66" width="9.44" height="9.44" rx="1.11" ry="1.11"/><rect class="cls-2" x="78.39" y="108.66" width="9.44" height="9.44" rx="1.11" ry="1.11"/><rect class="cls-2" x="90.43" y="108.66" width="9.44" height="9.44" rx="1.11" ry="1.11"/><rect class="cls-2" x="102.48" y="108.66" width="9.44" height="9.44" rx="1.11" ry="1.11"/><rect class="cls-2" x="114.52" y="108.66" width="9.44" height="9.44" rx="1.11" ry="1.11"/><rect class="cls-2" x="126.57" y="108.66" width="9.44" height="9.44" rx="1.11" ry="1.11"/><rect class="cls-2" x="44.41" y="108.66" width="53.29" height="9.44" rx="1.11" ry="1.11"/><rect class="cls-3" x="52.18" y="121.98" width="35.53" height="14.99" rx="2.29" ry="2.29"/><rect class="cls-4" x="411" y="21.86" width="142.11" height="95.35" rx="2.28" ry="2.28"/><rect class="cls-2" x="417.11" y="27.97" width="129.9" height="72.24"/><line class="cls-5" x1="452.44" y1="42.24" x2="468.73" y2="42.24"/><line class="cls-6" x1="441.83" y1="42.24" x2="441.83" y2="42.24"/><line class="cls-5" x1="452.44" y1="59.58" x2="468.73" y2="59.58"/><line class="cls-6" x1="441.83" y1="59.58" x2="441.83" y2="59.58"/><line class="cls-5" x1="452.44" y1="76.91" x2="468.73" y2="76.91"/><line class="cls-6" x1="441.83" y1="76.91" x2="441.83" y2="76.91"/><line class="cls-7" x1="478.48" y1="42.24" x2="524.23" y2="42.24"/><line class="cls-7" x1="478.48" y1="50.91" x2="514.2" y2="50.91"/><line class="cls-7" x1="478.48" y1="68.25" x2="514.2" y2="68.25"/><line class="cls-7" x1="478.48" y1="85.58" x2="514.2" y2="85.58"/><line class="cls-7" x1="478.48" y1="59.58" x2="524.23" y2="59.58"/><line class="cls-7" x1="478.48" y1="76.91" x2="524.23" y2="76.91"/><rect class="cls-4" x="470.06" y="114.21" width="24" height="25"/><path class="cls-4" d="M513.06,145.21v-4a3,3,0,0,0-3-3h-56a3,3,0,0,0-3,3v4Z"/><circle class="cls-3" cx="482.06" cy="109.71" r="3.5"/><rect class="cls-8" x="212.34" y="123.08" width="133" height="63" rx="3.06" ry="3.06"/><rect class="cls-9" x="214.51" y="139.64" width="43.72" height="29.88" rx="1.35" ry="1.35" transform="translate(82.51 391.42) rotate(-90.17)"/><rect class="cls-9" x="257.14" y="139.64" width="43.72" height="29.88" rx="1.35" ry="1.35" transform="translate(125.26 434.04) rotate(-90.17)"/><rect class="cls-9" x="299.76" y="139.64" width="43.72" height="29.88" rx="1.35" ry="1.35" transform="translate(168.01 476.67) rotate(-90.17)"/><rect class="cls-8" x="314.04" y="66.04" width="18.3" height="2.11"/><rect class="cls-10" x="317.71" y="66.42" width="14.62" height="1.36"/><rect class="cls-8" x="227.57" y="48.65" width="16" height="2.24"/><rect class="cls-8" x="250.84" y="54.16" width="42.13" height="2.18"/><rect class="cls-10" x="227.57" y="49.05" width="16" height="1.44"/><rect class="cls-10" x="267.43" y="54.59" width="23.99" height="1.36"/><rect class="cls-8" x="227.57" y="58.72" width="16" height="2.24"/><rect class="cls-10" x="227.57" y="59.12" width="16" height="1.44"/><rect class="cls-8" x="226.95" y="72.76" width="16" height="2.24"/><rect class="cls-8" x="250.22" y="78.28" width="42.13" height="2.18"/><rect class="cls-10" x="226.95" y="73.16" width="16" height="1.44"/><rect class="cls-10" x="266.82" y="78.7" width="23.99" height="1.36"/><rect class="cls-8" x="226.95" y="82.84" width="16" height="2.24"/><rect class="cls-10" x="226.95" y="83.24" width="16" height="1.44"/><path class="cls-11" d="M320.39,67C320.39,82.7,281,82.7,281,82.7v-31S320.39,51.66,320.39,67Z"/><path class="cls-12" d="M262.91,55.11c0,9.48-23.71,9.48-23.71,9.48s4.39-4.71,4.39-9.31-4.39-9.38-4.39-9.38S262.91,45.9,262.91,55.11Z"/><path class="cls-12" d="M262,79.05c0,9.49-23.71,9.49-23.71,9.49s4.38-4.72,4.38-9.32-4.38-9.37-4.38-9.37S262,69.85,262,79.05Z"/><path class="cls-13" d="M41.43,179.81H38V161.3h3.45Z"/><path class="cls-13" d="M61.18,161.3v18.51H59.41a1.53,1.53,0,0,1-.68-.13,1.56,1.56,0,0,1-.53-.45l-9.67-12.35c0,.56.07,1.08.07,1.56v11.37h-3V161.3h1.8a2.12,2.12,0,0,1,.38,0,.77.77,0,0,1,.28.07,1,1,0,0,1,.24.17,2.71,2.71,0,0,1,.26.29l9.7,12.39-.06-.88q0-.44,0-.81V161.3Z"/><path class="cls-13" d="M71.32,161.3a10.64,10.64,0,0,1,3.22.43A6.24,6.24,0,0,1,76.78,163a4.81,4.81,0,0,1,1.31,1.87,6.34,6.34,0,0,1,.43,2.38,6.58,6.58,0,0,1-.45,2.47,5.17,5.17,0,0,1-1.34,1.92,6.28,6.28,0,0,1-2.25,1.26,10,10,0,0,1-3.16.45H68.75v6.51H65.3V161.3Zm0,9.31a5.12,5.12,0,0,0,1.65-.24,3.06,3.06,0,0,0,1.17-.68,2.59,2.59,0,0,0,.7-1.07,4,4,0,0,0,.23-1.42,3.59,3.59,0,0,0-.23-1.34,2.6,2.6,0,0,0-.69-1,3,3,0,0,0-1.16-.64,5.52,5.52,0,0,0-1.67-.23H68.75v6.65Z"/><path class="cls-13" d="M88.61,177a4.56,4.56,0,0,0,1.78-.34,3.63,3.63,0,0,0,1.33-.93,4.25,4.25,0,0,0,.83-1.46,6.06,6.06,0,0,0,.28-1.92V161.3h3.45v11.09a8.61,8.61,0,0,1-.53,3.05,6.84,6.84,0,0,1-3.94,4,9.32,9.32,0,0,1-6.42,0A6.94,6.94,0,0,1,83,177.86a6.87,6.87,0,0,1-1.52-2.42,8.39,8.39,0,0,1-.53-3.05V161.3h3.44v11.07a6.16,6.16,0,0,0,.29,1.93,4.1,4.1,0,0,0,.83,1.46,3.62,3.62,0,0,0,1.33.94A4.61,4.61,0,0,0,88.61,177Z"/><path class="cls-13" d="M113.11,164.13h-5.59v15.68h-3.44V164.13H98.49V161.3h14.62Z"/><path class="cls-13" d="M237.62,205.21a1.06,1.06,0,0,1-.29.35.69.69,0,0,1-.39.11,1,1,0,0,1-.52-.18l-.67-.4a6.21,6.21,0,0,0-.92-.39,3.8,3.8,0,0,0-1.23-.18,3.5,3.5,0,0,0-1.13.16,2.24,2.24,0,0,0-.81.43,1.68,1.68,0,0,0-.49.66,2.1,2.1,0,0,0-.16.84,1.47,1.47,0,0,0,.33,1,2.71,2.71,0,0,0,.86.67,7.88,7.88,0,0,0,1.23.49c.46.15.94.3,1.42.47a12.23,12.23,0,0,1,1.41.57,5,5,0,0,1,1.23.83,3.7,3.7,0,0,1,.87,1.23,4.2,4.2,0,0,1,.33,1.75,5.71,5.71,0,0,1-.39,2.12,4.88,4.88,0,0,1-1.12,1.71,5.34,5.34,0,0,1-1.81,1.15,6.69,6.69,0,0,1-2.45.42,7.54,7.54,0,0,1-1.57-.16,8.05,8.05,0,0,1-1.47-.44,7.27,7.27,0,0,1-1.33-.69,6.61,6.61,0,0,1-1.11-.9l.91-1.48a1,1,0,0,1,.3-.27A.77.77,0,0,1,229,215a1.08,1.08,0,0,1,.62.24c.22.15.49.33.8.52a5.61,5.61,0,0,0,1.07.52,4.06,4.06,0,0,0,1.48.24,3,3,0,0,0,2.05-.63,2.26,2.26,0,0,0,.72-1.8,1.67,1.67,0,0,0-.33-1.07,2.64,2.64,0,0,0-.87-.69,6.31,6.31,0,0,0-1.23-.48c-.46-.13-.92-.27-1.4-.43a11,11,0,0,1-1.4-.55,4.33,4.33,0,0,1-1.23-.84,3.76,3.76,0,0,1-.87-1.29,4.93,4.93,0,0,1-.33-1.92,4.59,4.59,0,0,1,.36-1.77,4.68,4.68,0,0,1,1.06-1.53,5.19,5.19,0,0,1,1.7-1.07,6.41,6.41,0,0,1,2.32-.4,7.63,7.63,0,0,1,2.71.46,6.19,6.19,0,0,1,2.12,1.29Z"/><path class="cls-13" d="M253,204.73h-5v14.08h-3.09V204.73h-5v-2.54H253Z"/><path class="cls-13" d="M270.49,210.5a9.16,9.16,0,0,1-.61,3.39,7.7,7.7,0,0,1-4.36,4.47,9.59,9.59,0,0,1-6.89,0,7.92,7.92,0,0,1-2.66-1.78,8,8,0,0,1-1.72-2.69,9.72,9.72,0,0,1,0-6.78,8,8,0,0,1,1.72-2.69,7.92,7.92,0,0,1,2.66-1.78,8.89,8.89,0,0,1,3.44-.64,9.58,9.58,0,0,1,2.38.29,8.89,8.89,0,0,1,2.05.83,7.57,7.57,0,0,1,1.67,1.3,8.21,8.21,0,0,1,1.26,1.71,8.55,8.55,0,0,1,.79,2.05A9.7,9.7,0,0,1,270.49,210.5Zm-3.17,0A7.85,7.85,0,0,0,267,208a5.43,5.43,0,0,0-1-1.84,4.41,4.41,0,0,0-1.65-1.16,6.05,6.05,0,0,0-4.38,0,4.53,4.53,0,0,0-1.66,1.16,5.43,5.43,0,0,0-1.05,1.84,8.36,8.36,0,0,0,0,4.92,5.43,5.43,0,0,0,1.05,1.84,4.63,4.63,0,0,0,1.66,1.15,6.2,6.2,0,0,0,4.38,0,4.51,4.51,0,0,0,1.65-1.15,5.43,5.43,0,0,0,1-1.84A7.85,7.85,0,0,0,267.32,210.5Z"/><path class="cls-13" d="M286.2,218.81h-2.8a1.22,1.22,0,0,1-1.15-.62l-3.49-5.32a1.28,1.28,0,0,0-.44-.43,1.52,1.52,0,0,0-.69-.12h-1.32v6.49h-3.1V202.19h5.07a10.35,10.35,0,0,1,2.91.35,5.53,5.53,0,0,1,2,1,3.79,3.79,0,0,1,1.14,1.51,5.23,5.23,0,0,1,.12,3.53,4.47,4.47,0,0,1-.71,1.35,4.53,4.53,0,0,1-1.15,1.07,5.89,5.89,0,0,1-1.56.73,2.71,2.71,0,0,1,.55.41,2.49,2.49,0,0,1,.46.55Zm-8-8.71a4.92,4.92,0,0,0,1.52-.22,3.05,3.05,0,0,0,1.07-.6,2.52,2.52,0,0,0,.63-.92,3.11,3.11,0,0,0,.21-1.16,2.35,2.35,0,0,0-.84-1.94,3.92,3.92,0,0,0-2.55-.68h-2v5.52Z"/><path class="cls-13" d="M302.25,218.81h-2.39a1,1,0,0,1-.66-.2,1.26,1.26,0,0,1-.38-.5l-1.24-3.39h-6.89l-1.24,3.39a1.09,1.09,0,0,1-.36.49,1,1,0,0,1-.65.21H286l6.55-16.62h3.15Zm-5.46-6.27-2-5.54c-.1-.24-.2-.53-.31-.87s-.21-.7-.32-1.09c-.1.39-.2.75-.31,1.1s-.21.63-.31.89l-2,5.51Z"/><path class="cls-13" d="M317.19,210.48v6.72a8.72,8.72,0,0,1-2.7,1.37,10.77,10.77,0,0,1-3.06.43,10.28,10.28,0,0,1-3.69-.63,8.43,8.43,0,0,1-2.82-1.76,8,8,0,0,1-1.8-2.69,9.12,9.12,0,0,1-.63-3.42,9.31,9.31,0,0,1,.61-3.44,7.78,7.78,0,0,1,1.73-2.69,7.91,7.91,0,0,1,2.72-1.75,9.94,9.94,0,0,1,3.59-.62,11.28,11.28,0,0,1,1.89.16,10.44,10.44,0,0,1,1.63.44,7.11,7.11,0,0,1,1.38.69,9.08,9.08,0,0,1,1.14.88l-.89,1.41a.87.87,0,0,1-.54.41,1,1,0,0,1-.72-.17l-.76-.44a6.05,6.05,0,0,0-.85-.38,8.31,8.31,0,0,0-1-.26,7.64,7.64,0,0,0-1.34-.11,5.68,5.68,0,0,0-2.23.42,4.86,4.86,0,0,0-1.7,1.18,5.64,5.64,0,0,0-1.08,1.85,7.4,7.4,0,0,0-.38,2.42,7.49,7.49,0,0,0,.41,2.55,5.36,5.36,0,0,0,1.15,1.89,4.89,4.89,0,0,0,1.79,1.19,6.44,6.44,0,0,0,2.33.41,6.32,6.32,0,0,0,1.65-.2,7.53,7.53,0,0,0,1.41-.53v-3H312.3a.66.66,0,0,1-.47-.17.54.54,0,0,1-.16-.4v-1.75Z"/><path class="cls-13" d="M323.28,204.65v4.61h5.82v2.38h-5.82v4.7h7.39v2.47H320.18V202.19h10.49v2.46Z"/><path class="cls-13" d="M216.17,3.19a9.58,9.58,0,0,1,2.89.39,5.53,5.53,0,0,1,2,1.09,4.39,4.39,0,0,1,1.18,1.68,5.9,5.9,0,0,1,.38,2.14,5.87,5.87,0,0,1-.4,2.21A4.56,4.56,0,0,1,221,12.43a5.67,5.67,0,0,1-2,1.13,9,9,0,0,1-2.84.4h-2.31v5.85h-3.09V3.19Zm0,8.36a4.39,4.39,0,0,0,1.48-.22,2.69,2.69,0,0,0,1.06-.61,2.42,2.42,0,0,0,.62-1,3.68,3.68,0,0,0,.21-1.27,3.3,3.3,0,0,0-.21-1.21,2.34,2.34,0,0,0-.62-.92,2.69,2.69,0,0,0-1-.58,4.82,4.82,0,0,0-1.5-.2h-2.31v6Z"/><path class="cls-13" d="M238,19.81h-2.8a1.22,1.22,0,0,1-1.15-.62l-3.49-5.32a1.37,1.37,0,0,0-.44-.43,1.55,1.55,0,0,0-.69-.12H228.1v6.49H225V3.19h5.07a10.35,10.35,0,0,1,2.91.35,5.53,5.53,0,0,1,2,1A3.88,3.88,0,0,1,236.11,6,4.9,4.9,0,0,1,236.48,8a4.9,4.9,0,0,1-.25,1.59,4.47,4.47,0,0,1-.71,1.35A4.53,4.53,0,0,1,234.37,12a5.89,5.89,0,0,1-1.56.73,2.71,2.71,0,0,1,.55.41,2.8,2.8,0,0,1,.46.55Zm-8-8.71a4.92,4.92,0,0,0,1.52-.22,3.15,3.15,0,0,0,1.07-.6,2.52,2.52,0,0,0,.63-.92,3.11,3.11,0,0,0,.2-1.16,2.34,2.34,0,0,0-.83-1.94,3.94,3.94,0,0,0-2.55-.68h-2V11.1Z"/><path class="cls-13" d="M255.42,11.5a9.37,9.37,0,0,1-.6,3.39,8.14,8.14,0,0,1-1.71,2.69,7.82,7.82,0,0,1-2.66,1.78,9.59,9.59,0,0,1-6.89,0,7.92,7.92,0,0,1-2.66-1.78,8,8,0,0,1-1.72-2.69,9.16,9.16,0,0,1-.61-3.39,9.16,9.16,0,0,1,.61-3.39,8,8,0,0,1,1.72-2.69,7.92,7.92,0,0,1,2.66-1.78A8.89,8.89,0,0,1,247,3a9.58,9.58,0,0,1,2.38.29,8.71,8.71,0,0,1,2.05.83,7.75,7.75,0,0,1,2.93,3,8.15,8.15,0,0,1,.79,2.05A9.7,9.7,0,0,1,255.42,11.5Zm-3.16,0A7.85,7.85,0,0,0,251.89,9a5.43,5.43,0,0,0-1-1.84A4.41,4.41,0,0,0,249.19,6a6.05,6.05,0,0,0-4.38,0,4.53,4.53,0,0,0-1.66,1.16A5.43,5.43,0,0,0,242.1,9a7.85,7.85,0,0,0-.37,2.46A7.85,7.85,0,0,0,242.1,14a5.43,5.43,0,0,0,1.05,1.84A4.63,4.63,0,0,0,244.81,17a6.2,6.2,0,0,0,4.38,0,4.51,4.51,0,0,0,1.65-1.15,5.43,5.43,0,0,0,1-1.84A7.85,7.85,0,0,0,252.26,11.5Z"/><path class="cls-13" d="M269.56,15.89a.62.62,0,0,1,.45.2l1.22,1.32a6.53,6.53,0,0,1-2.49,1.92,8.49,8.49,0,0,1-3.55.67,8.36,8.36,0,0,1-3.32-.63,7.47,7.47,0,0,1-2.53-1.76,7.73,7.73,0,0,1-1.6-2.69,10,10,0,0,1-.56-3.42,9.47,9.47,0,0,1,.6-3.43,8,8,0,0,1,1.68-2.69,7.69,7.69,0,0,1,2.6-1.75A8.52,8.52,0,0,1,265.39,3a8.2,8.2,0,0,1,3.23.6A7.85,7.85,0,0,1,271,5.16L270,6.6a.91.91,0,0,1-.24.24.65.65,0,0,1-.39.11.81.81,0,0,1-.36-.1l-.4-.24-.51-.32a4.68,4.68,0,0,0-.67-.32,5.76,5.76,0,0,0-2-.34,5.15,5.15,0,0,0-2,.4,4.58,4.58,0,0,0-1.6,1.15,5.3,5.3,0,0,0-1,1.84,7.61,7.61,0,0,0-.37,2.48,7.17,7.17,0,0,0,.4,2.5,5.54,5.54,0,0,0,1.07,1.84,4.74,4.74,0,0,0,1.6,1.14,5,5,0,0,0,2,.4,9.68,9.68,0,0,0,1.14-.07,5.1,5.1,0,0,0,1-.22,4,4,0,0,0,.81-.39,4.44,4.44,0,0,0,.77-.58.91.91,0,0,1,.24-.16A.48.48,0,0,1,269.56,15.89Z"/><path class="cls-13" d="M276.46,5.65v4.61h5.82v2.38h-5.82v4.7h7.39v2.47H273.36V3.19h10.49V5.65Z"/><path class="cls-13" d="M295.44,6.21a1.06,1.06,0,0,1-.29.35.71.71,0,0,1-.39.11,1,1,0,0,1-.52-.18l-.68-.4a6.06,6.06,0,0,0-.91-.39,3.82,3.82,0,0,0-1.24-.18,3.44,3.44,0,0,0-1.12.16,2.24,2.24,0,0,0-.81.43,1.68,1.68,0,0,0-.49.66,2.1,2.1,0,0,0-.16.84,1.52,1.52,0,0,0,.32,1,2.87,2.87,0,0,0,.87.67,7.88,7.88,0,0,0,1.23.49l1.42.47a12.23,12.23,0,0,1,1.41.57,5,5,0,0,1,1.23.83,3.7,3.7,0,0,1,.87,1.23,4.2,4.2,0,0,1,.33,1.75,5.71,5.71,0,0,1-.39,2.12A4.88,4.88,0,0,1,295,18.43a5.34,5.34,0,0,1-1.81,1.15,6.69,6.69,0,0,1-2.45.42,7.54,7.54,0,0,1-1.57-.16,8.4,8.4,0,0,1-1.48-.44,7.51,7.51,0,0,1-1.32-.69,6.23,6.23,0,0,1-1.11-.9l.91-1.48a1,1,0,0,1,.3-.27.77.77,0,0,1,.39-.11,1.08,1.08,0,0,1,.62.24l.79.52a6,6,0,0,0,1.08.52,4.06,4.06,0,0,0,1.48.24,3,3,0,0,0,2-.63,2.24,2.24,0,0,0,.73-1.8,1.67,1.67,0,0,0-.33-1.07,2.64,2.64,0,0,0-.87-.69,6.31,6.31,0,0,0-1.23-.48c-.46-.13-.93-.27-1.4-.43a10.42,10.42,0,0,1-1.4-.55,4.33,4.33,0,0,1-1.23-.84,3.76,3.76,0,0,1-.87-1.29,4.93,4.93,0,0,1-.33-1.92A4.59,4.59,0,0,1,286.3,6a4.65,4.65,0,0,1,1.05-1.53,5.24,5.24,0,0,1,1.71-1.07,6.41,6.41,0,0,1,2.32-.4,7.63,7.63,0,0,1,2.71.46,6.19,6.19,0,0,1,2.12,1.29Z"/><path class="cls-13" d="M308.06,6.21a1.07,1.07,0,0,1-.3.35.66.66,0,0,1-.38.11,1,1,0,0,1-.53-.18c-.18-.12-.41-.25-.67-.4a6.06,6.06,0,0,0-.91-.39A3.82,3.82,0,0,0,304,5.52a3.5,3.5,0,0,0-1.13.16,2.24,2.24,0,0,0-.81.43,1.68,1.68,0,0,0-.49.66,2.28,2.28,0,0,0-.16.84,1.47,1.47,0,0,0,.33,1,2.87,2.87,0,0,0,.87.67,7.88,7.88,0,0,0,1.23.49c.46.15.93.3,1.41.47a11.69,11.69,0,0,1,1.42.57,5,5,0,0,1,1.23.83,3.7,3.7,0,0,1,.87,1.23,4.21,4.21,0,0,1,.32,1.75,5.7,5.7,0,0,1-.38,2.12,4.91,4.91,0,0,1-1.13,1.71,5.24,5.24,0,0,1-1.81,1.15,6.66,6.66,0,0,1-2.45.42,7.37,7.37,0,0,1-1.56-.16A8,8,0,0,1,299,18.71a6.53,6.53,0,0,1-1.1-.9l.91-1.48a.85.85,0,0,1,.69-.38,1.11,1.11,0,0,1,.62.24c.22.15.48.33.79.52a6,6,0,0,0,1.08.52,4,4,0,0,0,1.47.24,3,3,0,0,0,2.05-.63,2.27,2.27,0,0,0,.73-1.8,1.67,1.67,0,0,0-.33-1.07,2.64,2.64,0,0,0-.87-.69,6.31,6.31,0,0,0-1.23-.48c-.46-.13-.93-.27-1.4-.43a10.55,10.55,0,0,1-1.41-.55,4.33,4.33,0,0,1-1.23-.84,3.76,3.76,0,0,1-.87-1.29,5.14,5.14,0,0,1-.32-1.92A4.59,4.59,0,0,1,298.92,6,4.65,4.65,0,0,1,300,4.47a5.3,5.3,0,0,1,1.7-1.07A6.46,6.46,0,0,1,304,3a7.67,7.67,0,0,1,2.71.46,6.28,6.28,0,0,1,2.12,1.29Z"/><path class="cls-13" d="M314.92,19.81h-3.1V3.19h3.1Z"/><path class="cls-13" d="M332.65,3.19V19.81h-1.58a1.43,1.43,0,0,1-.62-.12,1.55,1.55,0,0,1-.48-.4L321.29,8.2c0,.51.07,1,.07,1.4V19.81h-2.73V3.19h2a.91.91,0,0,1,.25.07,1.37,1.37,0,0,1,.21.15,2.1,2.1,0,0,1,.23.26L330,14.81,330,14c0-.26,0-.5,0-.73V3.19Z"/><path class="cls-13" d="M350.06,11.48V18.2a8.67,8.67,0,0,1-2.69,1.37,10.9,10.9,0,0,1-3.07.43,10.26,10.26,0,0,1-3.68-.63,8.43,8.43,0,0,1-2.82-1.76,7.76,7.76,0,0,1-1.8-2.69,9.12,9.12,0,0,1-.63-3.42A9.31,9.31,0,0,1,336,8.06a7.64,7.64,0,0,1,1.73-2.69,7.73,7.73,0,0,1,2.72-1.75A9.9,9.9,0,0,1,344,3a11.28,11.28,0,0,1,1.89.16,10.75,10.75,0,0,1,1.63.44,7,7,0,0,1,1.37.69,7.83,7.83,0,0,1,1.14.88l-.88,1.41a.87.87,0,0,1-.54.41,1,1,0,0,1-.73-.17l-.76-.44A5.45,5.45,0,0,0,346.3,6a8.06,8.06,0,0,0-1.05-.26,7.56,7.56,0,0,0-1.34-.11,5.63,5.63,0,0,0-2.22.42A4.77,4.77,0,0,0,340,7.23a5.31,5.31,0,0,0-1.08,1.85,7.4,7.4,0,0,0-.38,2.42,7.49,7.49,0,0,0,.41,2.55,5.22,5.22,0,0,0,1.15,1.89,4.81,4.81,0,0,0,1.79,1.19,6.36,6.36,0,0,0,2.33.41,6.3,6.3,0,0,0,1.64-.2,7.37,7.37,0,0,0,1.42-.53v-3h-2.09a.64.64,0,0,1-.47-.17.54.54,0,0,1-.17-.4V11.48Z"/><path class="cls-13" d="M453.63,170.56a10.35,10.35,0,0,1-.67,3.77,9,9,0,0,1-1.9,3,8.6,8.6,0,0,1-3,2,10.71,10.71,0,0,1-7.67,0,8.7,8.7,0,0,1-3-2,9,9,0,0,1-1.92-3,10.82,10.82,0,0,1,0-7.55,9,9,0,0,1,1.92-3,8.85,8.85,0,0,1,3-2,10,10,0,0,1,3.83-.71,10.29,10.29,0,0,1,2.65.33,9.23,9.23,0,0,1,2.28.92,8.46,8.46,0,0,1,1.86,1.45,9.1,9.1,0,0,1,1.41,1.9,9.45,9.45,0,0,1,.87,2.28A10.88,10.88,0,0,1,453.63,170.56Zm-3.52,0a8.35,8.35,0,0,0-.41-2.74,5.86,5.86,0,0,0-1.16-2,5,5,0,0,0-1.84-1.3,6.84,6.84,0,0,0-4.88,0,5,5,0,0,0-1.84,1.3,5.73,5.73,0,0,0-1.17,2,9.33,9.33,0,0,0,0,5.47,5.64,5.64,0,0,0,1.17,2.05,5.11,5.11,0,0,0,1.84,1.29,7,7,0,0,0,4.88,0,5.11,5.11,0,0,0,1.84-1.29,5.77,5.77,0,0,0,1.16-2.05A8.33,8.33,0,0,0,450.11,170.56Z"/><path class="cls-13" d="M464.12,177a4.61,4.61,0,0,0,1.79-.34,3.59,3.59,0,0,0,1.32-.93,4.1,4.1,0,0,0,.83-1.46,6,6,0,0,0,.29-1.92V161.3h3.44v11.09a8.39,8.39,0,0,1-.53,3.05,6.76,6.76,0,0,1-3.94,4,8.49,8.49,0,0,1-3.2.57,8.58,8.58,0,0,1-3.21-.57,7,7,0,0,1-2.42-1.59,6.87,6.87,0,0,1-1.52-2.42,8.61,8.61,0,0,1-.53-3.05V161.3h3.44v11.07a6.16,6.16,0,0,0,.29,1.93,4.1,4.1,0,0,0,.83,1.46,3.66,3.66,0,0,0,1.34.94A4.56,4.56,0,0,0,464.12,177Z"/><path class="cls-13" d="M488.62,164.13H483v15.68h-3.45V164.13H474V161.3h14.61Z"/><path class="cls-13" d="M497.07,161.3a10.64,10.64,0,0,1,3.22.43,6.24,6.24,0,0,1,2.24,1.22,4.81,4.81,0,0,1,1.31,1.87,6.9,6.9,0,0,1,0,4.85,5.08,5.08,0,0,1-1.35,1.92,6.15,6.15,0,0,1-2.24,1.26,10,10,0,0,1-3.16.45H494.5v6.51h-3.45V161.3Zm0,9.31a5.12,5.12,0,0,0,1.65-.24,3.06,3.06,0,0,0,1.17-.68,2.59,2.59,0,0,0,.7-1.07,4,4,0,0,0,.23-1.42,3.59,3.59,0,0,0-.23-1.34,2.6,2.6,0,0,0-.69-1,3,3,0,0,0-1.16-.64,5.52,5.52,0,0,0-1.67-.23H494.5v6.65Z"/><path class="cls-13" d="M514.36,177a4.56,4.56,0,0,0,1.78-.34,3.63,3.63,0,0,0,1.33-.93,4.25,4.25,0,0,0,.83-1.46,6.06,6.06,0,0,0,.28-1.92V161.3H522v11.09a8.61,8.61,0,0,1-.53,3.05,7,7,0,0,1-1.53,2.42,6.85,6.85,0,0,1-2.41,1.59,9.32,9.32,0,0,1-6.42,0,6.94,6.94,0,0,1-2.41-1.59,6.87,6.87,0,0,1-1.52-2.42,8.39,8.39,0,0,1-.54-3.05V161.3h3.45v11.07a6.16,6.16,0,0,0,.29,1.93,4.1,4.1,0,0,0,.83,1.46,3.62,3.62,0,0,0,1.33.94A4.61,4.61,0,0,0,514.36,177Z"/><path class="cls-13" d="M538.86,164.13h-5.59v15.68h-3.44V164.13h-5.59V161.3h14.62Z"/><g id="c110_arrows" data-name="c110 arrows"><path class="cls-14" d="M198,102.64c-1.11-.67-11.62-6.85-11.62-6.85s-1.41-.85-1.41.28V99l-31.64-.1v8.43h32v3.19c0,.93,1.34.07,1.34.07l11.27-7S198.8,103.13,198,102.64Z"/></g><rect class="cls-15" x="212.84" y="36.21" width="132" height="63.5" rx="2.76" ry="2.76"/><g id="c110_arrows-2" data-name="c110 arrows"><path class="cls-14" d="M399,102.14c-1.11-.67-11.62-6.85-11.62-6.85s-1.41-.85-1.41.28v2.94l-31.64-.1v8.43h32V110c0,.93,1.34.07,1.34.07l11.27-7S399.8,102.63,399,102.14Z"/></g></svg>